Coordinates
version=1
nRows=10
nColumns=34
inDegrees=yes

Units are S.I. units (second, meters, Newtons, ...)
If the header above contains a line with 'inDegrees', this indicates whether rotational values are in degrees (yes) or radians (no).

endheader
time	pelvis_tilt	pelvis_list	pelvis_rotation	pelvis_tx	pelvis_ty	pelvis_tz	hip_flexion_r	hip_adduction_r	hip_rotation_r	knee_angle_r	ankle_angle_r	subtalar_angle_r	mtp_angle_r	hip_flexion_l	hip_adduction_l	hip_rotation_l	knee_angle_l	ankle_angle_l	subtalar_angle_l	mtp_angle_l	lumbar_extension	lumbar_bending	lumbar_rotation	arm_flex_r	arm_add_r	arm_rot_r	elbow_flex_r	pro_sup_r	arm_flex_l	arm_add_l	arm_rot_l	elbow_flex_l	pro_sup_l
      3.65000000	    -23.12456341	      2.78557373	    -10.27746655	      1.01795080	      0.95537592	      0.03118192	     30.36266793	      0.67858313	     -5.94722258	     14.57745364	      8.17488781	    -15.85012579	      0.00000000	     32.25049574	     -2.28866059	      2.50713110	     17.02825677	      5.13162276	    -13.35890469	      0.00000000	     -2.63991612	      1.49816814	      1.93566145	    192.70002438	   -141.30629452	    223.47453972	     76.69767797	     86.19932671	    194.54968920	   -139.56083228	    196.59134936	     66.94453557	     77.22661370
      3.66666670	    -21.95105866	      2.63204643	    -10.48411575	      1.02836381	      0.95151924	      0.03245413	     26.91391227	      0.75974634	     -6.66072905	     11.45320285	      8.38500171	    -13.66827781	      0.00000000	     28.81506677	     -2.29449501	      1.65332385	     13.89751514	      5.15004289	    -12.06441128	      0.00000000	     -1.18058152	      1.32189997	      1.72424116	    189.36212622	   -142.25106557	    223.14842405	     74.93165183	     85.49070186	    191.56948714	   -140.40233957	    195.85153855	     66.06726199	     76.75175546
      3.68333330	    -20.86608947	      2.59537753	    -10.61367603	      1.03713794	      0.95748895	      0.03331092	     23.71358776	      0.74216937	     -7.21102118	      8.62990023	      8.25067499	    -12.04352343	      0.00000000	     25.72139921	     -2.19151437	      0.97905226	     11.07167182	      4.88781841	    -11.03999494	      0.00000000	      0.19299219	      1.03690231	      1.43173765	    186.17682969	   -143.47312702	    222.72886550	     72.92949210	     84.89100237	    188.88076069	   -141.19385773	    195.20352692	     65.23264329	     76.31876302
      3.70000000	    -19.91340741	      2.50039511	    -10.72425364	      1.03875868	      0.96963719	      0.03334747	     20.96950895	      0.84026848	     -7.44119364	      5.90754699	      7.82883326	    -10.63510599	      0.00000000	     23.18526932	     -2.16110001	      0.45825364	      8.81140390	      4.18982891	    -10.06768742	      0.00000000	      1.18103175	      0.87507578	      1.06037026	    183.70316232	   -144.92297812	    222.19139287	     70.76808320	     84.41484387	    186.75662327	   -142.17198795	    194.83378135	     64.21035428	     75.97104357
      3.71666670	    -18.76238532	      2.40239112	    -10.87079346	      1.04370393	      0.96582487	      0.03303809	     18.26799897	      0.88078175	     -7.51385714	      3.64602244	      7.68431328	     -9.61111707	      0.00000000	     20.81706393	     -2.11164698	      0.40833542	      7.24772916	      4.15074605	     -9.03861935	      0.00000000	      1.67336263	      0.63028498	      0.73848154	    181.37490932	   -146.28326053	    221.25156285	     68.70605202	     83.82216359	    185.05432105	   -143.06332910	    194.12330312	     63.57332814	     75.51681939
      3.73333330	    -17.77692784	      2.34394539	    -11.00456099	      1.04943366	      0.97023266	      0.03690090	     15.80672702	      0.99449409	     -7.43889415	      1.50260755	      7.32507658	     -8.54091482	      0.00000000	     18.87833291	     -2.13907537	      0.32021517	      6.23067174	      3.91419057	     -8.07534830	      0.00000000	      2.21147205	      0.31384463	      0.34256903	    179.41883915	   -147.79206899	    220.40441058	     66.70887829	     83.34366367	    183.54217119	   -143.78635262	    193.76339294	     62.73350847	     75.12955213
      3.75000000	    -17.24525042	      2.34552050	    -11.18224136	      1.05229139	      0.96567506	      0.03658198	     14.19985054	      1.06441063	     -7.13305495	      0.00000000	      7.32263213	     -8.27239433	      0.00000000	     17.94177834	     -2.17519505	      0.49641715	      6.14641814	      4.17292686	     -7.94434871	      0.00000000	      3.22063268	      0.19340524	      0.17871293	    177.60132379	   -148.52793264	    220.75760555	     66.14267646	     83.29495709	    182.25362878	   -144.37487599	    193.99186653	     62.52585835	     75.07984458
      3.76666670	    -16.02099162	      2.42019861	    -11.78775960	      1.05393464	      0.96989621	      0.03704309	     12.69199757	      0.90317841	     -6.91350433	      0.00000000	      7.58650215	     -7.42385259	      0.00000000	     16.32694506	     -2.15223143	      0.62031585	      6.20293665	      4.38422226	     -6.99864165	      0.00000000	      3.18355684	     -0.36053664	     -0.09524074	    176.83492673	   -150.73078796	    219.50738709	     62.53838461	     82.86761207	    181.36035196	   -145.22986918	    193.50412123	     61.11522192	     74.72708446
      3.78333330	    -15.24134237	      2.39549815	    -12.34936312	      1.05262128	      0.96186990	      0.03488346	     11.69943904	      0.79603488	     -6.62230431	      0.00000000	      8.14105277	     -6.96554283	      0.00000000	     15.86267988	     -2.30149869	      0.94185447	      7.43187643	      5.41257470	     -6.46455105	      0.00000000	      3.57109915	     -0.60527472	     -0.00094027	    175.79183291	   -151.98833509	    218.91953968	     60.49544664	     82.53980337	    180.78484234	   -146.00493088	    193.12621652	     60.84876513	     74.39665674
      3.80000000	    -14.51335540	      2.50666943	    -12.95279477	      1.05200447	      0.96458787	      0.03265891	     10.97179442	      0.51882773	     -6.27839305	      0.00000000	      8.36680717	     -6.83765339	      0.00000000	     15.70919772	     -2.31590503	      1.94381202	      9.04979793	      6.16806928	     -6.01168953	      0.00000000	      3.76444064	     -0.95188304	     -0.15599675	    175.38857619	   -153.42428539	    218.49451200	     58.34068218	     82.27782482	    180.41309735	   -146.93488831	    193.01243571	     60.06892740	     74.13913348
